<?xml version="1.0" encoding="UTF-8"?>
<svg width="72px" height="72px" viewBox="0 0 72 72" version="1.1" xmlns="http://www.w3.org/2000/svg" xmlns:xlink="http://www.w3.org/1999/xlink">
    <!-- Generator: Sketch 53.2 (72643) - https://sketchapp.com -->
    <title>Slice</title>
    <desc>Created with Sketch.</desc>
    <g id="Page-1" stroke="none" stroke-width="1" fill="none" fill-rule="evenodd">
        <path d="M13,5 L59,5 C63.418278,5 67,8.581722 67,13 L67,59 C67,63.418278 63.418278,67 59,67 L13,67 C8.581722,67 5,63.418278 5,59 L5,13 C5,8.581722 8.581722,5 13,5 Z M34.5878684,52.4453187 L57.7717398,29.5783985 C57.7848067,29.5655102 57.7977847,29.5525322 57.810673,29.5394653 C59.3619821,27.966654 59.3445511,25.4340541 57.7717398,23.882745 L56.9988921,23.1204631 C55.4413679,21.5842321 52.9386293,21.5842321 51.3811051,23.1204631 L30.8367887,43.3839141 L22.1188949,34.7852043 C20.5613707,33.2489733 18.0586321,33.2489733 16.5011079,34.7852043 L15.7282602,35.5474862 C15.7151933,35.5603745 15.7022153,35.5733525 15.689327,35.5864194 C14.1380179,37.1592307 14.1554489,39.6918306 15.7282602,41.2431397 L28.0328762,53.3795369 C29.5904005,54.9157679 32.093139,54.9157679 33.6506633,53.3795369 L34.423511,52.617255 C34.4365779,52.6043667 34.4495559,52.5913887 34.4624442,52.5783218 C34.5054582,52.5347115 34.5472662,52.4903634 34.5878684,52.4453187 Z" id="pull-review" stroke="#0066FF" stroke-width="2"></path>
    </g>
</svg>