<?xml version="1.0" encoding="UTF-8"?>
<svg width="72px" height="72px" viewBox="0 0 72 72" version="1.1" xmlns="http://www.w3.org/2000/svg" xmlns:xlink="http://www.w3.org/1999/xlink">
    <!-- Generator: Sketch 53.2 (72643) - https://sketchapp.com -->
    <title>metadash</title>
    <desc>Created with Sketch.</desc>
    <g id="Page-1" stroke="none" stroke-width="1" fill="none" fill-rule="evenodd">
        <g id="metadash" stroke="#0066FF" stroke-width="2">
            <path d="M31.7300733,1 C23.2606232,1 18.5061699,1.98586433 13.9772356,4.40796489 C9.84928182,6.61561871 6.61561871,9.84928182 4.40796489,13.9772356 C1.98586433,18.5061699 1,23.2606232 1,31.7300733 L1,40.2699267 C1,48.7393768 1.98586433,53.4938301 4.40796489,58.0227644 C6.61561871,62.1507182 9.84928182,65.3843813 13.9772356,67.5920351 C18.5061699,70.0141357 23.2606232,71 31.7300733,71 L40.2699267,71 C48.7393768,71 53.4938301,70.0141357 58.0227644,67.5920351 C62.1507182,65.3843813 65.3843813,62.1507182 67.5920351,58.0227644 C70.0141357,53.4938301 71,48.7393768 71,40.2699267 L71,31.7300733 C71,23.2606232 70.0141357,18.5061699 67.5920351,13.9772356 C65.3843813,9.84928182 62.1507182,6.61561871 58.0227644,4.40796489 C53.4938301,1.98586433 48.7393768,1 40.2699267,1 L31.7300733,1 Z" id="Rectangle"></path>
            <g id="Group" transform="translate(14.000000, 23.000000)">
                <circle id="Oval" cx="13.5" cy="5.5" r="4.5"></circle>
                <circle id="Oval-Copy-5" cx="30.5" cy="5.5" r="4.5"></circle>
                <circle id="Oval-Copy-6" cx="38.5" cy="20.5" r="4.5"></circle>
                <circle id="Oval-Copy-7" cx="21.5" cy="20.5" r="4.5"></circle>
                <circle id="Oval-Copy-8" cx="5.5" cy="20.5" r="4.5"></circle>
            </g>
        </g>
    </g>
</svg>