<?xml version="1.0" encoding="UTF-8"?>
<svg width="72px" height="72px" viewBox="0 0 72 72" version="1.1" xmlns="http://www.w3.org/2000/svg" xmlns:xlink="http://www.w3.org/1999/xlink">
    <!-- Generator: Sketch 53.2 (72643) - https://sketchapp.com -->
    <title>vibecal</title>
    <desc>Created with Sketch.</desc>
    <g id="vibecal" stroke="none" stroke-width="1" fill="none" fill-rule="evenodd">
        <g transform="translate(-14.000000, -16.000000)" fill-rule="nonzero" id="Group" stroke="#0066FF" stroke-width="2">
            <g>
                <g id="blob" transform="translate(48.757994, 49.286288) rotate(-60.000000) translate(-48.757994, -49.286288) translate(12.757994, 13.786288)">
                    <path d="M64.1457521,22.154824 C57.2242692,9.8063805 46.7418689,1.40813577 36.537404,1.01506412 C25.8743038,0.60629131 13.9698746,8.67188891 7.03120364,20.6398496 C0.078922544,32.5760292 -1.04020991,47.0545814 4.61306889,56.1849015 C10.1417388,65.0342334 22.8120281,70.1070385 36.8868565,69.8759555 C50.6531258,69.6499384 62.7411871,64.2875155 67.5882312,55.7298331 C72.4066997,47.2226023 70.8620346,34.2404541 64.1457503,22.1548207 Z" id="Path"></path>
                </g>
                <path d="M33.6565657,41.7673817 C33.6565657,37.6824401 35.1357492,35.64 38.0941608,35.64 C39.1315259,35.64 40.0247991,35.9210697 40.7740072,36.4832177 C41.5232153,37.0453656 42.1667562,37.7761469 42.7046492,38.6755836 C43.2425422,39.5750203 43.7227967,40.5587644 44.1454269,41.6268454 C44.5680571,42.6949265 44.990681,43.7348845 45.4133112,44.7467508 C45.8743623,45.9085232 46.3065913,47.163968 46.7100111,48.513123 C47.1134308,49.862278 47.5072394,51.0989849 47.8914487,52.2232808 C48.275658,53.3475766 48.6790717,54.2844757 49.101702,55.0340063 C49.5243322,55.7835369 50.0237968,56.1582965 50.6001107,56.1582965 C51.1764246,56.1582965 51.6854943,55.8397508 52.127335,55.2026498 C52.5691757,54.5655489 52.9725894,53.7317086 53.3375882,52.7011041 C53.702587,51.6704996 54.0675804,50.4806377 54.4325792,49.1314826 C54.797578,47.7823276 55.1913867,46.3769789 55.6140169,44.9153943 C55.9598052,43.7910985 56.3536139,42.7042955 56.7954545,41.6549527 C57.2372952,40.6056099 57.7463649,39.6780797 58.3226788,38.8723344 C58.8989928,38.066589 59.5617439,37.4294976 60.310952,36.961041 C61.0601601,36.4925844 61.915013,36.2583596 62.8755362,36.2583596 C64.2202687,36.2583596 65.2960386,36.6893332 66.1028781,37.5512934 C66.9097176,38.4132535 67.3131313,39.5562705 67.3131313,40.9803785 C67.3131313,41.9922448 67.1018194,43.3320106 66.6791892,44.9997161 C66.2565589,46.6674216 65.6706486,48.5318509 64.9214404,50.5930599 C64.1722323,52.654269 63.2885642,54.846613 62.2704096,57.1701577 C61.252255,59.4937025 60.1476698,61.7984744 58.956621,64.0845426 C58.1882024,65.5836037 57.5062412,66.8015726 56.9107168,67.7384858 C56.3151924,68.675399 55.7388871,69.4061803 55.1817836,69.9308517 C54.6246801,70.4555231 54.0579799,70.8115448 53.481666,70.9989274 C52.905352,71.1863101 52.2329959,71.28 51.4645773,71.28 C48.928796,71.28 46.5947595,70.4555287 44.462398,68.8065615 C42.3300364,67.1575943 40.2841526,64.5717526 38.3246852,61.048959 C37.4794248,59.5498979 36.7686482,57.9384313 36.1923343,56.214511 C35.6160204,54.4905907 35.135766,52.7666963 34.7515567,51.042776 C34.3673474,49.3188557 34.0887998,47.6511752 33.9159056,46.0396845 C33.7430115,44.4281938 33.6565657,43.0041071 33.6565657,41.7673817 Z" id="v"></path>
            </g>
        </g>
    </g>
</svg>